<?xml version="1.0" encoding="utf-8"?>
<!DOCTYPE svg PUBLIC "-//W3C//DTD SVG 1.1//EN" "http://www.w3.org/Graphics/SVG/1.1/DTD/svg11.dtd">
<svg version="1.1" xmlns="http://www.w3.org/2000/svg" xmlns:xlink="http://www.w3.org/1999/xlink" x="0px" y="0px" width="97px"
	 height="43.2px" viewBox="0 0 97 43.2" enable-background="new 0 0 97 43.2" xml:space="preserve">
<g id="Layer_1">
	<g>
		<g>
			<path fill-rule="evenodd" clip-rule="evenodd" fill="#282828" d="M28.1,24.5c-0.7,0-1,0.1-2.6,0.8l-0.1,0c0-1.8,0.1-3.8,0.1-5.2
				c0,0,0-0.1,0-0.1c-0.2,0-3,0.4-4,0.4c0,0.5,0,1,0,1.5l1.2,0.1c0,2.6,0,5.7,0,8.4c0,0.6,0,1.7-0.1,2.2c0.6,0.1,1.1,0.2,1.6,0.2
				l0.6-0.7c0.5,0.3,1.3,0.5,1.9,0.5c0.9,0,1.9-0.2,2.3-0.6c0.7-0.5,1.1-1.1,1.4-1.8c0.3-0.8,0.5-1.6,0.5-2.5
				C30.8,26.1,29.6,24.5,28.1,24.5z M27.4,30.6c-0.2,0.4-0.5,0.5-0.9,0.5c-0.4,0-1.1-0.2-1.1-0.7c0-1.1,0-2.4,0-3.5
				c0.5-0.3,0.9-0.5,1.3-0.5c0.4,0,0.6,0.2,0.7,0.5c0.2,0.3,0.3,0.8,0.3,1.7C27.8,29.5,27.6,30.2,27.4,30.6z M39.3,30.8
				c-0.1,0-0.1,0-0.1-0.1c0-0.8,0-2.4,0-3.6c0-1.5-1.3-2.7-2.7-2.7c-1.7,0-3,0.7-4.3,1.7c0.3,0.4,0.6,0.9,0.9,1.3
				c0.7-0.5,1.6-1,2.2-1c0.8,0,1.1,0.5,1.1,1.4h-0.8c-2.8,0-4,1.7-4,2.7c0,1.1,1.4,2,2.3,2c0.7,0,1.5-0.2,2.6-0.8h0.1
				c0.3,0.3,0.5,0.6,0.7,0.8c1.4,0,2.7-0.2,2.9-0.4c0-0.5,0-1,0-1.4L39.3,30.8z M36.5,30.4c0,0,0,0.1,0,0.1
				c-0.3,0.2-0.7,0.4-1.2,0.4c-0.4,0-0.8-0.3-0.8-0.7c0-0.5,0.5-1,1.7-1c0.1,0,0.3,0,0.4,0V30.4z M45.8,30.8c-0.4,0-0.9-0.1-1.2-0.4
				C44.3,30,44,29.5,44,28.7c0-0.8,0.1-1.3,0.4-1.8c0.3-0.4,0.6-0.5,1-0.5c0.7,0,1.6,0.4,1.8,0.5c0.4-0.2,0.9-1.4,0.9-2
				c-0.4-0.2-1.3-0.4-2-0.4c-3.1,0-5.1,2.1-5.1,4.6c0,2.2,1.7,3.5,3.8,3.5c0.7,0,2.1-0.2,3.3-0.9c-0.1-0.4-0.2-1-0.3-1.4
				C47.3,30.5,46.5,30.8,45.8,30.8z M57.3,30.7c-0.1-0.2-0.3-0.7-0.6-1.2c-0.4-1-0.9-1.4-1.3-1.6v-0.1c0.5-0.4,1.1-0.9,1.9-1.6
				l0.6-0.1c0-0.5,0-1,0-1.5c-0.5,0-1,0-1.5,0h-2.5c0,0.5,0,1,0,1.5l0.7,0c0,0,0.1,0,0,0.1c-0.5,0.5-0.9,1-1.2,1.3
				c-0.3,0-0.6,0.1-0.9,0.1c0-2.8,0.1-5.4,0.1-7.4c0-0.1,0-0.1-0.1-0.1c-0.2,0-3,0.4-4,0.5c0,0.5,0,1,0,1.5l1.1,0c0,2.7,0,6.1,0,8.8
				c0,0,0,0.1-0.1,0.1L48.8,31c0,0.5,0,1,0,1.5c0.7,0,1.6,0,2.3,0h2.2c0-0.5,0-1,0-1.4l-0.7-0.1c0-0.6,0-1.4,0-2h0.7
				c0.3,0,0.6,0.6,0.9,1.4c0.3,0.9,0.5,1.6,0.8,2.1c0.2,0,2.9,0,3.5,0c0-0.5,0-1,0-1.5l-0.9,0C57.5,30.9,57.4,30.9,57.3,30.7z
				 M65.1,24.5c-0.7,0-1,0.1-2.6,0.8l-0.1,0c0-1.8,0.1-3.8,0.1-5.2c0,0,0-0.1,0-0.1c-0.2,0-3,0.4-4,0.4c0,0.5,0,1,0,1.5l1.2,0.1
				c0,2.6,0,5.7,0,8.4c0,0.6,0,1.7-0.1,2.2c0.6,0.1,1.1,0.2,1.6,0.2l0.6-0.7c0.5,0.3,1.3,0.5,1.9,0.5c0.9,0,1.9-0.2,2.3-0.6
				c0.7-0.5,1.1-1.1,1.4-1.8c0.3-0.8,0.5-1.6,0.5-2.5C67.8,26.1,66.6,24.5,65.1,24.5z M64.4,30.6c-0.2,0.4-0.5,0.5-0.9,0.5
				c-0.4,0-1.1-0.2-1.1-0.7c0-1.1,0-2.4,0-3.5c0.5-0.3,0.9-0.5,1.3-0.5c0.4,0,0.6,0.2,0.7,0.5c0.2,0.3,0.3,0.8,0.3,1.7
				C64.8,29.5,64.7,30.2,64.4,30.6z M75.9,25.1c-0.7-0.4-1.5-0.6-2.4-0.6c-1.1,0-2.1,0.3-2.9,0.8c-1.1,0.8-1.7,2-1.7,3.4
				c0,1.4,0.5,2.3,1.3,3c0.7,0.6,1.8,0.8,2.8,0.8c1,0,1.9-0.2,2.6-0.7c1-0.7,1.9-2,1.9-3.6C77.5,26.8,76.8,25.7,75.9,25.1z
				 M74.1,30.8c-0.2,0.3-0.5,0.4-0.8,0.4c-0.3,0-0.6-0.1-0.8-0.5c-0.2-0.4-0.4-1-0.4-2.3c0-1.1,0.2-1.8,0.5-2.2
				c0.2-0.3,0.5-0.4,0.8-0.4s0.6,0.2,0.8,0.5c0.2,0.4,0.3,1,0.3,2C74.5,29.6,74.4,30.3,74.1,30.8z M87.6,27.3c0-0.5-0.1-1-0.4-1.6
				c-0.4-0.6-1.1-1.3-1.8-1.3c-0.8,0-1.2,0.1-2.9,1.2l-0.1,0c-0.1-0.4-0.2-0.7-0.2-1.1c0,0,0,0,0,0c-0.1,0-2.7,0.4-3.6,0.5
				c0,0.4,0,1,0,1.4l1.1,0v4.4c0,0,0,0.1-0.1,0.1l-0.9,0c0,0.5,0,1,0,1.5c0.7,0,1.6,0,2.3,0h2.2c0-0.5,0-1,0-1.4l-0.8-0.1
				c0-1,0-2.7,0.1-3.7c0.4-0.3,1-0.6,1.4-0.6c0.3,0,0.5,0.1,0.7,0.4c0.1,0.3,0.1,0.7,0.1,1.5c0,0.7,0,1.7,0,2.4c0,0.1,0,0.1-0.1,0.1
				l-0.7,0c0,0.5,0,1,0,1.5c0.6,0,1.4,0,2.2,0h2.3c0-0.5,0-1,0-1.5l-0.9,0C87.5,29.8,87.6,28.3,87.6,27.3z M94,30.8
				c-0.5,0-0.9,0-1.3-0.4c-0.2-0.2-0.4-0.6-0.5-1.1c1.6,0,3.4,0,3.8-0.1c0.1,0,0.9-0.8,1-1c0-1.1-0.3-2-0.9-2.7
				c-0.5-0.5-1.3-0.9-2.4-0.9c-2.6,0-4.4,2-4.4,4.5c0,2.5,1.8,3.6,4.1,3.6c0.8,0,2.4-0.4,3.4-0.8c-0.1-0.4-0.2-1-0.3-1.5
				C95.9,30.5,94.8,30.8,94,30.8z M92.5,26.4c0.2-0.4,0.5-0.5,0.8-0.5c0.4,0,0.6,0.2,0.8,0.5c0.1,0.3,0.2,0.7,0.2,1.1
				c0,0.1-0.1,0.2-0.2,0.2c-0.5,0-1.4,0-2,0C92.2,27.1,92.3,26.8,92.5,26.4z M12.1,26.5c-1.1,0-2.2,0-3.3-0.1
				c-0.5,0-0.9-0.2-1.4-0.2c-0.6-0.1-1,0.2-1.1,0.9c-0.1,0.6-0.1,1.2-0.2,1.7c0,0.4,0,0.7,0,1c0,0.7,0.3,1.1,1,1.1
				c0.6,0,1.1,0,1.7,0.1c1.1,0.1,2.2,0.1,3.2,0.2c0.4,0,0.8,0.1,1.1,0.1c0.5,0,0.9-0.2,0.9-0.8c0.1-0.7,0.2-1.3,0.2-2
				C14.4,26.6,14.2,26.4,12.1,26.5z"/>
		</g>
	</g>
</g>
<g id="Layer_2">
	<path display="none" fill="none" d="M6.1,28.8c0,0.4,0,0.7,0,1c0,0.7,0.3,1.1,1,1.1c0.6,0,1.1,0,1.7,0.1c1.1,0.1,2.2,0.1,3.2,0.2
		c0.4,0,0.8,0.1,1.1,0.1c0.5,0,0.9-0.2,0.9-0.8c0.1-0.7,0.2-1.3,0.2-2c0.1-2-0.2-2.2-2.2-2.1c-1.1,0-2.2,0-3.3-0.1
		c-0.5,0-0.9-0.2-1.4-0.2c-0.6-0.1-1,0.2-1.1,0.9C6.2,27.6,6.1,28.2,6.1,28.8z"/>
	<path display="none" fill-rule="evenodd" clip-rule="evenodd" fill="none" d="M5.8,8.8C4.8,8.7,4.5,8.6,4.3,7.6
		C4,6.2,3.8,4.7,3.5,3.3C3.4,2.4,3.9,1.8,4.9,1.6c1.2-0.1,2.5-0.1,3.7-0.3c1.4-0.3,2.8-0.7,4.3-1.1c0.3-0.1,0.7-0.2,1-0.2
		c0.9-0.1,1.4,0.3,1.6,1.1c0.3,1.5,0.5,3.1,0.8,4.6C16.3,6.5,15.8,7,15,7.2c-0.5,0.1-1.1,0.2-1.6,0.2C11.5,7.2,9.8,7.7,8,8.3
		C7.3,8.5,6.5,8.6,5.8,8.8z"/>
	<path display="none" fill-rule="evenodd" clip-rule="evenodd" fill="none" d="M0,12.2C0,11.4,0.4,11,1.2,11c0.9,0,1.9,0.1,2.8,0.1
		c1.1,0,2.2-0.2,3.2-0.3c0.6-0.1,1.2-0.1,1.8-0.1c0.8,0,1.2,0.3,1.2,1c0.1,1.4,0.1,2.8,0,4.2c0,0.5-0.5,0.7-1,0.8
		c-0.3,0.1-0.6,0.1-0.9,0c-1.8-0.3-3.6,0-5.3,0.2C2.6,17,2.1,17,1.6,17c-1.1,0-1.3-0.2-1.5-1.3c0-0.1,0-0.2,0-0.3"/>
	<path display="none" fill-rule="evenodd" clip-rule="evenodd" fill="none" d="M7.7,35.8c0.1-0.5,0.2-1.3,0.4-2
		c0.1-0.5,0.5-0.7,1-0.7c1.7,0.2,3.5,0.3,5.2,0.5c0.7,0.1,1,0.4,0.9,1.1c-0.1,0.8-0.2,1.6-0.3,2.3c-0.1,0.6-0.4,0.8-0.9,0.8
		c0,0,0,0-0.1,0c-1.7-0.2-3.4-0.3-5.2-0.5C7.8,37.2,7.7,37,7.7,35.8z"/>
	<path display="none" fill-rule="evenodd" clip-rule="evenodd" fill="none" d="M11.3,40.6c-0.1,0.7-0.3,1.3-0.4,2
		c-0.1,0.5-0.4,0.7-0.9,0.6c-1.4-0.2-2.7-0.5-4.1-0.7C5.3,42.4,5,42,5.1,41.4c0.1-0.6,0.2-1.2,0.3-1.8c0.1-0.4,0.4-0.6,0.9-0.6
		c1.4,0.2,2.8,0.5,4.3,0.7C11,39.8,11.3,40.1,11.3,40.6z"/>
	<path fill="#8BC643" d="M5.8,8.8C6.5,8.6,7.3,8.5,8,8.3c1.8-0.6,3.5-1,5.4-0.9c0.5,0,1.1-0.1,1.6-0.2c0.8-0.2,1.3-0.6,1.2-1.4
		c-0.2-1.5-0.5-3.1-0.8-4.6C15.3,0.3,14.8,0,13.9,0c-0.3,0-0.7,0.1-1,0.2C11.5,0.6,10.1,1,8.6,1.3C7.4,1.5,6.1,1.5,4.9,1.6
		c-1,0.1-1.5,0.7-1.4,1.6C3.8,4.7,4,6.2,4.3,7.6C4.5,8.6,4.8,8.7,5.8,8.8z M0.1,15.4c0,0.1,0,0.2,0,0.3C0.3,16.8,0.5,17,1.6,17
		c0.5,0,1,0,1.6-0.1c1.8-0.2,3.5-0.5,5.3-0.2c0.3,0.1,0.6,0,0.9,0c0.5-0.1,0.9-0.3,1-0.8c0-1.4,0-2.8,0-4.2c-0.1-0.8-0.5-1-1.2-1
		c-0.6,0-1.2,0-1.8,0.1c-1.1,0.1-2.2,0.3-3.2,0.3c-0.9,0-1.9-0.1-2.8-0.1C0.4,11,0,11.4,0,12.2 M12.6,19.7c-0.1-0.8-0.4-1-1.2-1
		c-0.8,0-1.6,0.2-2.4,0.2c-1.5,0-2.9,0-4.4,0c-0.9,0-1.3,0.4-1.3,1.2c0,1,0,2,0.1,3.1c0.1,0.9,0.3,1.2,1.2,1.1
		c2.3-0.2,4.6-0.5,7-0.3c0.6,0.1,0.9-0.4,1-1c0-0.5,0-1,0-1.5 M7.7,35.8c0,1.1,0.1,1.4,0.9,1.5c1.7,0.2,3.4,0.4,5.2,0.5
		c0,0,0,0,0.1,0c0.5,0,0.9-0.2,0.9-0.8c0.1-0.8,0.3-1.6,0.3-2.3c0.1-0.7-0.2-1-0.9-1.1c-1.7-0.2-3.5-0.3-5.2-0.5
		c-0.5,0-0.9,0.2-1,0.7C7.9,34.6,7.8,35.4,7.7,35.8z M11.3,40.6c0-0.5-0.3-0.8-0.8-0.9c-1.4-0.2-2.8-0.5-4.3-0.7
		c-0.5-0.1-0.8,0.1-0.9,0.6c-0.1,0.6-0.2,1.2-0.3,1.8c-0.1,0.7,0.2,1,0.8,1.1c1.4,0.2,2.7,0.5,4.1,0.7c0.5,0.1,0.8-0.1,0.9-0.6
		C11,41.9,11.2,41.3,11.3,40.6z"/>
</g>
</svg>
